#N canvas 0 23 450 405 10;
#X obj 34 196 inlet;
#X obj 34 324 *~;
#X obj 34 350 outlet~;
#X text 32 25 impulse: creates an impulse signal from the specified
delay table \, delay amount (ms) \, and gain (relative to original
signal).;
#X text 31 103 Clone object arguments:;
#X text 30 151 \$2 (symbol): name of delay table.;
#X text 32 69 Message argument 1 (float): relative gain (should be
between 0 and 1).;
#X text 31 124 \$1 (integer \, autogen): instance number or \, in this
case \, delay time in 10 ms.;
#X obj 34 298 delread~ \$2;
#X obj 34 247 float \$1;
#X obj 34 223 bng 15 250 50 0 empty empty empty 17 7 0 10 -262144 -1
-1;
#X connect 0 0 1 1;
#X connect 0 0 10 0;
#X connect 1 0 2 0;
#X connect 8 0 1 0;
#X connect 9 0 8 0;
#X connect 10 0 9 0;
