#N canvas 0 23 450 361 10;
#X obj 34 198 inlet;
#X obj 34 280 *~;
#X obj 34 309 outlet~;
#X obj 34 224 unpack f f;
#X obj 34 252 delread~ \$2;
#X text 32 25 impulse: creates an impulse signal from the specified
delay table \, delay amount (ms) \, and gain (relative to original
signal).;
#X text 31 124 Clone object arguments:;
#X text 32 71 Message argument 1 (float): output delay (ms).;
#X text 32 90 Message argument 2 (float): relative gain (likely between
0 and 1).;
#X text 30 166 \$2 (symbol): name of delay table.;
#X text 31 145 \$1 (integer \, autogen): instance number.;
#X connect 0 0 3 0;
#X connect 1 0 2 0;
#X connect 3 0 4 0;
#X connect 3 1 1 1;
#X connect 4 0 1 0;
