#N canvas 162 162 450 300 10;
#X obj 34 136 inlet;
#X obj 34 218 *~;
#X obj 34 247 outlet~;
#X obj 34 162 unpack f f;
#X obj 34 190 delread~ delayRight;
#X text 33 25 impulseRight: creates an impulse signal in the right
stereo channel with the specified delay (ms) and gain (relative to
original signal). Output signal should eventually reach the right input
channel of a dac~.;
#X text 32 77 Message argument 1 (Float): output delay (ms).;
#X text 32 96 Message argument 2 (Float): relative gain (likely between
0 and 1).;
#X connect 0 0 3 0;
#X connect 1 0 2 0;
#X connect 3 0 4 0;
#X connect 3 1 1 1;
#X connect 4 0 1 0;
