#N canvas 200 313 457 313 10;
#X obj 28 156 tabplay~ file_ch1;
#X obj 28 69 inlet;
#X obj 49 209 tabplay~ file_ch2;
#X text 23 23 playFileDry: plays the loaded sound without any reverb
when the inlet (bang) is triggered.;
#X obj 28 234 dac~;
#X obj 28 92 s bang_play_dry;
#X obj 28 133 r bang_play_dry;
#X obj 49 185 r bang_play_dry;
#X connect 0 0 4 0;
#X connect 1 0 5 0;
#X connect 2 0 4 1;
#X connect 6 0 0 0;
#X connect 7 0 2 0;
