#N canvas 561 241 440 398 10;
#X obj 28 78 inlet;
#X obj 28 102 s bang_play_wet;
#X obj 28 141 r bang_play_wet;
#X obj 49 221 r bang_play_wet;
#X obj 28 165 tabplay~ audio_ch1;
#X obj 49 245 tabplay~ audio_ch2;
#X text 25 26 playFileWet: plays the loaded audio file with the specified
impulse response when inlet (bang) is triggered.;
#X obj 28 302 dac~;
#X obj 28 192 bsaylor/partconv~ ir_ch1 2048;
#X obj 49 271 bsaylor/partconv~ ir_ch2 2048;
#X connect 0 0 1 0;
#X connect 2 0 4 0;
#X connect 3 0 5 0;
#X connect 4 0 8 0;
#X connect 5 0 9 0;
#X connect 8 0 7 0;
#X connect 9 0 7 1;
