#N canvas 200 313 457 313 10;
#X obj 28 69 inlet;
#X text 23 23 playFileDry: plays the loaded sound without any reverb
when the inlet (bang) is triggered.;
#X obj 28 234 dac~;
#X obj 28 92 s bang_play_dry;
#X obj 28 133 r bang_play_dry;
#X obj 49 185 r bang_play_dry;
#X obj 28 156 tabplay~ audio_ch1;
#X obj 49 209 tabplay~ audio_ch2;
#X connect 0 0 3 0;
#X connect 4 0 6 0;
#X connect 5 0 7 0;
#X connect 6 0 2 0;
#X connect 7 0 2 1;
