#N canvas 281 282 503 429 10;
#X obj 26 372 dac~;
#X obj 26 120 inlet;
#X msg 26 217 next \$1 \$2;
#X msg 47 313 next \$1 \$2;
#X obj 26 144 s bang_set;
#X obj 47 347 clone impulseRight 8;
#X text 24 27 setReverb: generates the reverb impulses when triggered.
;
#X text 24 51 The impulses are formed from the impulse messages (found
in impulses_left and impulses_right below) containing a list of pairs
of delay/gain values \, one for each channel.;
#X obj 279 140 impulseListLeft;
#X text 275 114 (click to edit impulses);
#X obj 279 167 impulselistRight;
#X obj 47 288 r impulseListRight;
#X obj 26 192 r impulseListLeft;
#X obj 26 252 clone impulseLeft 8;
#X msg 148 217 all 0 0;
#X obj 148 192 r bang_clear;
#X msg 175 313 all 0 0;
#X obj 175 288 r bang_clear;
#X connect 1 0 4 0;
#X connect 2 0 13 0;
#X connect 3 0 5 0;
#X connect 5 0 0 1;
#X connect 11 0 3 0;
#X connect 12 0 2 0;
#X connect 13 0 0 0;
#X connect 14 0 13 0;
#X connect 15 0 14 0;
#X connect 16 0 5 0;
#X connect 17 0 16 0;
